<svg width="26" height="26" viewBox="0 0 26 26" fill="none" xmlns="http://www.w3.org/2000/svg">
<path d="M26 13.0895C26 19.2726 21.6803 24.4369 15.8953 25.7544V14.9548H19.0193V11.3485H15.8637V10.5435C15.8637 8.9979 16.5401 7.74161 18.1494 7.74161C18.7943 7.74161 19.3099 7.83867 19.7291 7.96727L19.9213 4.19963C19.245 4.00674 18.4097 3.8769 17.3142 3.8769C15.8977 3.8769 14.1901 4.29732 12.9672 5.45592C11.5496 6.74436 10.9703 8.83715 10.9703 10.7364V11.3479H8.90902V14.9541H10.9697V25.9152C4.75684 24.9389 0 19.5768 0 13.0895C0 5.90972 5.82085 0.0888672 13.0006 0.0888672C20.1804 0.088249 26 5.9091 26 13.0895Z" fill="white"/>
</svg>
