<svg width="26" height="26" viewBox="0 0 26 26" fill="none" xmlns="http://www.w3.org/2000/svg">
<g clip-path="url(#clip0_393:1229)">
<path d="M1.62493 1.7694C-0.418236 3.89165 -6.89626e-05 6.14606 -6.89626e-05 12.9949C-6.89626e-05 18.6824 -0.992402 24.384 4.2011 25.7262C5.82285 26.1433 20.1922 26.1433 21.8118 25.7241C23.9741 25.1661 25.7334 23.4122 25.9739 20.354C26.0075 19.9271 26.0075 6.07023 25.9728 5.63473C25.7172 2.37715 23.7119 0.499731 21.0697 0.119481C20.4641 0.0317314 20.3428 0.0057314 17.2358 0.000314735C6.21501 0.0057314 3.79918 -0.485019 1.62493 1.7694Z" fill="white"/>
<path d="M12.9978 3.40062C9.06421 3.40062 5.32888 3.05071 3.90213 6.71237C3.31279 8.22471 3.39838 10.1888 3.39838 13.0011C3.39838 15.469 3.31929 17.7884 3.90213 19.2888C5.32563 22.9526 9.09129 22.6016 12.9956 22.6016C16.7624 22.6016 20.6461 22.9938 22.0902 19.2888C22.6806 17.7613 22.594 15.8265 22.594 13.0011C22.594 9.25062 22.8009 6.82937 20.982 5.01154C19.1403 3.16987 16.6497 3.40062 12.9935 3.40062H12.9978ZM12.1376 5.13071C20.3428 5.11771 21.3871 4.20554 20.8108 16.8773C20.606 21.359 17.1935 20.8672 12.9989 20.8672C5.35054 20.8672 5.13063 20.6484 5.13063 12.9968C5.13063 5.25637 5.73729 5.13504 12.1376 5.12854V5.13071ZM18.122 6.72429C17.486 6.72429 16.9704 7.23996 16.9704 7.87587C16.9704 8.51179 17.486 9.02746 18.122 9.02746C18.7579 9.02746 19.2735 8.51179 19.2735 7.87587C19.2735 7.23996 18.7579 6.72429 18.122 6.72429ZM12.9978 8.07087C10.2754 8.07087 8.06863 10.2787 8.06863 13.0011C8.06863 15.7235 10.2754 17.9303 12.9978 17.9303C15.7202 17.9303 17.9259 15.7235 17.9259 13.0011C17.9259 10.2787 15.7202 8.07087 12.9978 8.07087ZM12.9978 9.80095C17.2282 9.80095 17.2336 16.2013 12.9978 16.2013C8.76846 16.2013 8.76196 9.80095 12.9978 9.80095Z" fill="#292929"/>
</g>
<defs>
<clipPath id="clip0_393:1229">
<rect width="26" height="26" fill="white"/>
</clipPath>
</defs>
</svg>
